# xmcd CD database file
#
# Track frame offsets:
#	182
#	14690
#	24745
#	34915
#	45995
#	58785
#	71155
#	80510
#	91395
#	104315
#	114415
#	128002
#	139742
#	152472
#	160975
#	171095
#	182632
#	195460
#	211092
#	225360
#
# Disc length: 3176 seconds
#
# Revision: 1
# Processed by: cddbd v1.5.2PL0 Copyright (c) Steve Scherf et al.
# Submitted via: CDex 1.51
#
DISCID=040c6614
DTITLE=Big Maybelle - Maybelle Sings The Blues (Charly R&B Masters Vol 14)
DYEAR=1900
DGENRE=R&B
TTITLE0=Oh Lord, What Are You Doing To Me?
TTITLE1=Same Old Story
TTITLE2=I Don't Want To Cry
TTITLE3=Yesterday's Kisses
TTITLE4=Don't Let The Sun Catch You Cryin'
TTITLE5=That's All
TTITLE6=Put Yourself In My Place
TTITLE7=I Will Never Turn My Back On You
TTITLE8=I Cried For You
TTITLE9=Only You
TTITLE10=I Won't Cry Anymore
TTITLE11=I Know Love
TTITLE12=I Just Don't Know What To Do With Myself
TTITLE13=In The Still Of The Night
TTITLE14=Let Me Go
TTITLE15=No Better For You
TTITLE16=It's A Man's, Man's World
TTITLE17=Maybelle Sings The Blues
TTITLE18=Don't Pass Me By
TTITLE19=It's Been Raining
EXTD=
EXTT0=
EXTT1=
EXTT2=
EXTT3=
EXTT4=
EXTT5=
EXTT6=
EXTT7=
EXTT8=
EXTT9=
EXTT10=
EXTT11=
EXTT12=
EXTT13=
EXTT14=
EXTT15=
EXTT16=
EXTT17=
EXTT18=
EXTT19=
PLAYORDER=
